HIERARCHY
ROOT pelvis
{
	OFFSET 0.000000 0.718188 -0.000000
	CHANNELS 6 Xposition Yposition Zposition Xrotation Yrotation Zrotation
	JOINT spine
	{
		OFFSET 0.000000 0.000000 0.000000
		CHANNELS 6 Xposition Yposition Zposition Xrotation Yrotation Zrotation
		JOINT spine.001
		{
			OFFSET 0.000000 0.230300 0.012070
			CHANNELS 3 Xrotation Yrotation Zrotation
			JOINT neck
			{
				OFFSET 0.000000 0.228897 -0.028105
				CHANNELS 6 Xposition Yposition Zposition Xrotation Yrotation Zrotation
				JOINT face
				{
					OFFSET 0.000000 0.177999 -0.003107
					CHANNELS 6 Xposition Yposition Zposition Xrotation Yrotation Zrotation
					End Site
					{
						OFFSET 0.000000 -0.007061 0.030294
					}
				}
			}
			JOINT shoulder.L
			{
				OFFSET 0.000000 0.228897 -0.028105
				CHANNELS 6 Xposition Yposition Zposition Yrotation Xrotation Zrotation
				JOINT upper_arm.L
				{
					OFFSET 0.159763 0.000000 0.000000
					CHANNELS 6 Xposition Yposition Zposition Xrotation Yrotation Zrotation
					JOINT forearm.L
					{
						OFFSET 0.255072 0.000880 -0.000106
						CHANNELS 6 Xposition Yposition Zposition Xrotation Yrotation Zrotation
						End Site
						{
							OFFSET 0.221890 -0.001212 0.003776
						}
					}
				}
			}
			JOINT shoulder.R
			{
				OFFSET 0.000000 0.228897 -0.028105
				CHANNELS 6 Xposition Yposition Zposition Yrotation Xrotation Zrotation
				JOINT upper_arm.R
				{
					OFFSET -0.159763 0.000000 0.000000
					CHANNELS 6 Xposition Yposition Zposition Xrotation Yrotation Zrotation
					JOINT forearm.R
					{
						OFFSET -0.251549 0.000880 -0.000106
						CHANNELS 6 Xposition Yposition Zposition Xrotation Yrotation Zrotation
						End Site
						{
							OFFSET -0.225898 -0.001213 0.003846
						}
					}
				}
			}
		}
	}
	JOINT pelvis.L
	{
		OFFSET 0.000000 0.000000 0.000000
		CHANNELS 6 Xposition Yposition Zposition Yrotation Xrotation Zrotation
		End Site
		{
			OFFSET 0.095584 0.000000 0.000000
		}
	}
	JOINT pelvis.R
	{
		OFFSET 0.000000 0.000000 0.000000
		CHANNELS 6 Xposition Yposition Zposition Yrotation Xrotation Zrotation
		End Site
		{
			OFFSET -0.095584 0.000000 0.000000
		}
	}
	JOINT thigh.L
	{
		OFFSET 0.095584 0.000000 0.000000
		CHANNELS 6 Xposition Yposition Zposition Xrotation Yrotation Zrotation
		JOINT shin.L
		{
			OFFSET 0.017273 -0.329597 0.000000
			CHANNELS 6 Xposition Yposition Zposition Xrotation Yrotation Zrotation
			JOINT foot.L
			{
				OFFSET 0.016863 -0.321756 0.000000
				CHANNELS 6 Xposition Yposition Zposition Xrotation Yrotation Zrotation
				End Site
				{
					OFFSET 0.014462 -0.061917 0.147452
				}
			}
		}
	}
	JOINT thigh.R
	{
		OFFSET -0.095584 0.000000 0.000000
		CHANNELS 6 Xposition Yposition Zposition Xrotation Yrotation Zrotation
		JOINT shin.R
		{
			OFFSET -0.017343 -0.330928 0.000000
			CHANNELS 6 Xposition Yposition Zposition Xrotation Yrotation Zrotation
			JOINT foot.R
			{
				OFFSET -0.016927 -0.322983 0.000000
				CHANNELS 6 Xposition Yposition Zposition Xrotation Yrotation Zrotation
				End Site
				{
					OFFSET -0.015346 -0.065703 0.156466
				}
			}
		}
	}
}
MOTION
Frames: 11
Frame Time: 0.041667
0.060367 -0.010103 -0.013330 -0.000000 -13.516905 0.000003 0.000000 -0.000000 -0.000000 -6.553231 0.622052 -5.651173 10.005206 -2.223683 0.273133 -0.000000 0.228897 -0.028105 18.468664 -8.476340 0.359114 0.000000 0.177998 -0.003107 -2.952976 -0.000001 0.000002 -0.000000 0.228897 -0.028105 -0.098376 -0.000687 -0.800682 0.159763 0.000000 0.000000 -4.200761 -5.190773 -77.836296 0.255072 0.000880 -0.000106 -1.286942 -15.388502 -10.125748 -0.000000 0.228897 -0.028105 -0.104377 -0.000773 -0.849720 -0.159763 0.000000 -0.000000 -4.375883 4.909779 83.256557 -0.251549 0.000880 -0.000106 -1.166854 16.520476 8.367683 0.000000 0.000000 0.000000 -0.000009 -0.000001 -3.580534 0.000000 0.000000 0.000000 -0.000002 -0.000000 -3.580567 0.095397 -0.005969 -0.000000 9.414357 -0.570615 -12.921431 0.017273 -0.329597 0.000000 -4.609232 -0.407736 4.105248 0.016863 -0.321756 0.000000 -7.798193 29.132423 15.256611 -0.095397 0.005969 -0.000000 -1.132992 0.078199 -1.896417 -0.017343 -0.330928 0.000000 6.156055 -0.472675 -2.773069 -0.016927 -0.322983 0.000000 -6.571020 -9.698237 -5.366298 
0.061362 -0.011142 -0.013991 -0.000000 -13.214696 0.000003 -0.000000 -0.000000 0.000000 -6.381748 0.604507 -5.568611 10.006845 -2.527150 0.310467 -0.000000 0.228897 -0.028105 18.308510 -8.604560 0.230472 0.000000 0.177999 -0.003107 -2.998310 -0.000002 0.000003 -0.000000 0.228897 -0.028105 -0.122908 -0.001074 -1.001067 0.159763 0.000000 -0.000000 -4.669575 -5.763816 -77.945094 0.255072 0.000880 -0.000106 -1.120643 -14.236802 -9.615320 -0.000000 0.228897 -0.028105 -0.128942 -0.001183 -1.050104 -0.159763 0.000000 -0.000000 -4.677701 5.225204 83.542079 -0.251549 0.000880 -0.000106 -1.103249 16.063283 8.153524 0.000000 0.000000 0.000000 -0.000050 -0.000001 -3.731289 0.000000 0.000000 0.000000 0.000002 0.000000 -3.731288 0.095381 -0.006220 -0.000000 9.045820 -0.535214 -12.758066 0.017273 -0.329597 0.000000 -3.986315 -0.339965 3.745370 0.016863 -0.321756 0.000000 -8.163136 29.039956 15.359912 -0.095381 0.006220 0.000000 -1.283522 0.090161 -2.036083 -0.017343 -0.330928 0.000000 6.181150 -0.467523 -2.642451 -0.016927 -0.322983 0.000000 -6.431355 -10.362326 -5.657057 
0.062046 -0.011684 -0.014437 -0.000000 -12.997634 0.000003 -0.000000 -0.000000 -0.000000 -6.260941 0.592161 -5.509115 10.008055 -2.745071 0.337282 -0.000000 0.228897 -0.028105 18.211120 -8.942391 0.190005 -0.000000 0.177999 -0.003107 -3.033068 0.000016 -0.000003 0.000000 0.228897 -0.028105 -0.141794 -0.001432 -1.154861 0.159763 0.000000 0.000000 -4.962853 -6.122690 -77.998103 0.255072 0.000880 -0.000106 -1.014983 -13.295269 -9.418804 0.000000 0.228897 -0.028105 -0.147821 -0.001554 -1.203985 -0.159763 0.000000 0.000000 -4.900741 5.459817 83.716509 -0.251549 0.000880 -0.000106 -1.064578 15.727979 8.052491 0.000000 0.000000 0.000000 -0.000026 -0.000001 -3.819336 0.000000 0.000000 0.000000 -0.000002 -0.000000 -3.819376 0.095372 -0.006367 -0.000000 8.790511 -0.511407 -12.645937 0.017273 -0.329597 0.000000 -3.566880 -0.296901 3.513503 0.016863 -0.321756 0.000000 -8.402998 29.013506 15.445025 -0.095372 0.006367 -0.000000 -1.395962 0.099110 -2.121853 -0.017343 -0.330928 0.000000 6.231011 -0.468598 -2.593138 -0.016927 -0.322983 0.000000 -6.447713 -10.773613 -5.858435 
0.062310 -0.011750 -0.014632 -0.000000 -12.865984 0.000003 -0.000000 -0.000000 -0.000000 -6.197539 0.585505 -5.475780 10.008882 -2.876169 0.353501 -0.000000 0.228897 -0.028105 18.194553 -9.454253 0.236914 -0.000000 0.177999 -0.003107 -3.093420 0.000006 0.000004 -0.000000 0.228897 -0.028105 -0.153861 -0.001684 -1.252678 0.159763 -0.000000 -0.000000 -5.035767 -6.209804 -78.030000 0.255072 0.000880 -0.000106 -0.962256 -12.684673 -9.437999 -0.000000 0.228897 -0.028105 -0.159879 -0.001817 -1.301758 -0.159763 -0.000000 0.000000 -5.032672 5.601206 83.783308 -0.251549 0.000880 -0.000106 -1.050319 15.525939 8.064164 0.000000 0.000000 0.000000 -0.000015 -0.000001 -3.844723 0.000000 0.000000 0.000000 -0.000002 -0.000000 -3.844765 0.095369 -0.006409 -0.000000 8.675623 -0.499008 -12.571199 0.017273 -0.329597 0.000000 -3.391586 -0.279199 3.409422 0.016863 -0.321756 0.000000 -8.458177 29.042070 15.482169 -0.095369 0.006409 -0.000000 -1.533516 0.109991 -2.204315 -0.017343 -0.330928 0.000000 6.442011 -0.480747 -2.526880 -0.016927 -0.322983 0.000000 -6.642077 -10.896594 -5.960073 
0.062066 -0.011688 -0.014574 -0.000000 -12.772760 0.000003 0.000000 -0.000000 0.000000 -6.180768 0.583047 -5.460362 10.009384 -2.952274 0.362852 -0.000000 0.228897 -0.028105 18.221097 -9.933815 0.298217 0.000000 0.177999 -0.003107 -3.182490 -0.000003 0.000002 -0.000000 0.228897 -0.028105 -0.160552 -0.001830 -1.307469 0.159763 -0.000000 -0.000000 -4.936946 -6.077017 -78.122085 0.255072 0.000880 -0.000106 -0.923863 -12.374946 -9.322048 -0.000000 0.228897 -0.028105 -0.166564 -0.001973 -1.356545 -0.159763 0.000000 0.000000 -5.086700 5.658991 83.813559 -0.251549 0.000880 -0.000106 -1.049592 15.425333 8.123507 0.000000 0.000000 0.000000 0.000065 0.000003 -3.852180 0.000000 0.000000 0.000000 0.000003 0.000000 -3.852216 0.095368 -0.006422 -0.000000 8.666713 -0.490488 -12.465951 0.017273 -0.329597 0.000000 -3.366764 -0.274691 3.326246 0.016863 -0.321756 0.000000 -8.365058 29.063076 15.454503 -0.095368 0.006421 -0.000000 -1.795002 0.131406 -2.373101 -0.017343 -0.330928 0.000000 6.982787 -0.505242 -2.266620 -0.016927 -0.322983 0.000000 -6.973773 -10.866077 -6.017868 
0.061092 -0.011715 -0.014184 -0.000000 -12.659838 0.000003 -0.000000 -0.000000 -0.000000 -6.211970 0.584650 -5.461250 10.009460 -2.977446 0.365893 0.000000 0.228897 -0.028105 18.256281 -10.319295 0.319472 0.000000 0.177999 -0.003107 -3.231334 0.000016 0.000003 0.000000 0.228897 -0.028105 -0.162154 -0.001871 -1.321115 0.159763 0.000000 -0.000000 -4.710939 -5.779644 -78.287136 0.255072 0.000880 -0.000106 -0.872393 -12.243080 -8.884839 0.000000 0.228897 -0.028105 -0.168226 -0.002009 -1.370196 -0.159763 0.000000 -0.000000 -5.062901 5.630888 83.825976 -0.251549 0.000880 -0.000106 -1.057243 15.416485 8.193421 0.000000 0.000000 -0.000000 0.000028 0.000001 -3.882507 0.000000 0.000000 -0.000000 0.000000 0.000000 -3.882509 0.095364 -0.006472 -0.000000 8.738745 -0.478831 -12.260470 0.017273 -0.329597 0.000000 -3.407256 -0.272911 3.156186 0.016863 -0.321756 0.000000 -8.220835 29.009675 15.368349 -0.095364 0.006472 -0.000000 -2.169722 0.163322 -2.608472 -0.017343 -0.330928 0.000000 7.865532 -0.537868 -1.811589 -0.016927 -0.322983 0.000000 -7.458398 -10.727765 -6.056229 
0.059331 -0.011830 -0.013562 -0.000000 -12.429102 0.000003 -0.000000 -0.000000 -0.000000 -6.275894 0.589190 -5.474824 10.009428 -2.966033 0.364510 -0.000000 0.228897 -0.028105 18.336871 -10.833268 0.323352 0.000000 0.177999 -0.003107 -3.219807 0.000001 -0.000003 0.000000 0.228897 -0.028105 -0.157572 -0.001760 -1.283173 0.159763 -0.000000 -0.000000 -4.393013 -5.371369 -78.444135 0.255072 0.000880 -0.000106 -0.813922 -12.215711 -8.265821 0.000000 0.228897 -0.028105 -0.163600 -0.001903 -1.332206 -0.159763 0.000000 -0.000000 -5.000003 5.566219 83.767202 -0.251549 0.000880 -0.000106 -1.068050 15.419447 8.282031 0.000000 0.000000 -0.000000 0.000077 0.000002 -3.954853 0.000000 0.000000 -0.000000 -0.000001 -0.000000 -3.954853 0.095356 -0.006593 -0.000000 8.868898 -0.460213 -11.928954 0.017273 -0.329597 0.000000 -3.485948 -0.270390 2.867894 0.016863 -0.321756 0.000000 -8.098058 28.818238 15.221818 -0.095356 0.006592 -0.000000 -2.550444 0.196158 -2.794898 -0.017343 -0.330928 0.000000 8.939627 -0.575190 -1.348016 -0.016927 -0.322983 0.000000 -8.097678 -10.332404 -5.999167 
0.057128 -0.011991 -0.013146 -0.000000 -11.979276 0.000003 -0.000000 -0.000000 -0.000000 -6.313376 0.591569 -5.480041 10.009406 -2.969338 0.364917 0.000000 0.228897 -0.028105 18.525966 -11.718246 0.378328 -0.000000 0.177998 -0.003107 -3.251354 -0.000016 -0.000003 0.000000 0.228897 -0.028105 -0.147406 -0.001545 -1.200374 0.159763 -0.000000 -0.000000 -4.025526 -4.912511 -78.509008 0.255072 0.000880 -0.000106 -0.773912 -12.382791 -7.688367 0.000000 0.228897 -0.028105 -0.153421 -0.001674 -1.249453 -0.159763 0.000000 0.000000 -4.999900 5.583242 83.592547 -0.251549 0.000880 -0.000106 -1.071161 15.268157 8.410419 0.000000 0.000000 0.000000 -0.000067 -0.000003 -4.060795 0.000000 0.000000 0.000000 -0.000002 -0.000000 -4.060761 0.095344 -0.006769 -0.000000 9.011800 -0.434133 -11.504614 0.017273 -0.329597 0.000000 -3.612340 -0.269097 2.517757 0.016863 -0.321756 0.000000 -7.990262 28.450955 14.993768 -0.095344 0.006769 0.000000 -2.890294 0.224201 -2.869350 -0.017343 -0.330928 0.000000 10.086453 -0.618735 -1.002559 -0.016927 -0.322983 0.000000 -8.751823 -9.508096 -5.723671 
0.054855 -0.012202 -0.013280 0.000001 -11.315939 0.000003 0.000000 0.000000 -0.000000 -6.269447 0.585758 -5.445823 10.009817 -3.028568 0.372207 -0.000000 0.228897 -0.028105 18.802915 -12.875265 0.503076 -0.000000 0.177999 -0.003107 -3.431472 0.000001 -0.000000 -0.000000 0.228897 -0.028105 -0.136397 -0.001322 -1.110902 0.159763 -0.000000 -0.000000 -3.606167 -4.399824 -78.458793 0.255072 0.000880 -0.000106 -0.768131 -12.914419 -7.223308 -0.000000 0.228897 -0.028105 -0.142416 -0.001439 -1.160025 -0.159763 0.000000 -0.000000 -5.123307 5.747688 83.342979 -0.251549 0.000880 -0.000106 -1.059179 14.897795 8.566376 0.000000 0.000000 0.000000 -0.000038 -0.000002 -4.162744 0.000000 0.000000 0.000000 -0.000002 -0.000000 -4.162780 0.095332 -0.006938 -0.000000 9.135101 -0.404167 -11.055789 0.017273 -0.329597 0.000000 -3.806706 -0.273099 2.203858 0.016863 -0.321756 0.000000 -7.865131 27.930170 14.683080 -0.095332 0.006938 -0.000000 -3.215880 0.248706 -2.842235 -0.017343 -0.330928 0.000000 11.257951 -0.667231 -0.761947 -0.016927 -0.322983 0.000000 -9.237512 -8.311035 -5.212842 
0.052401 -0.012483 -0.013781 0.000001 -10.595226 0.000003 -0.000000 -0.000000 -0.000000 -6.157133 0.570026 -5.348987 10.010469 -3.122656 0.383805 0.000000 0.228897 -0.028105 19.049594 -13.873543 0.601583 0.000000 0.177999 -0.003107 -3.722237 -0.000010 -0.000000 0.000000 0.228897 -0.028105 -0.130493 -0.001209 -1.062461 0.159763 0.000000 -0.000000 -3.075999 -3.756870 -78.300339 0.255072 0.000880 -0.000106 -0.791029 -13.818186 -6.840030 0.000000 0.228897 -0.028105 -0.136504 -0.001325 -1.111502 -0.159763 0.000000 -0.000000 -5.312782 5.980403 83.167846 -0.251549 0.000880 -0.000106 -1.031165 14.463773 8.634554 0.000000 0.000000 0.000000 0.000087 0.000003 -4.212826 0.000000 0.000000 0.000000 0.000002 0.000000 -4.212826 0.095326 -0.007022 -0.000000 9.242634 -0.375127 -10.638141 0.017273 -0.329597 0.000000 -4.045709 -0.282877 1.995986 0.016863 -0.321756 0.000000 -7.746660 27.339705 14.341878 -0.095326 0.007022 -0.000000 -3.489572 0.264896 -2.679394 -0.017343 -0.330928 0.000000 12.321975 -0.718351 -0.647333 -0.016927 -0.322983 0.000000 -9.558503 -7.077510 -4.640195 
0.049423 -0.012767 -0.014213 0.000001 -10.047508 0.000003 -0.000000 0.000000 -0.000000 -6.038785 0.546656 -5.180760 10.010569 -3.153305 0.387522 -0.000000 0.228897 -0.028105 19.134707 -14.342062 0.525117 -0.000000 0.177998 -0.003107 -3.976453 -0.000002 0.000002 -0.000000 0.228897 -0.028105 -0.132823 -0.001253 -1.081341 0.159763 -0.000000 0.000000 -2.445194 -2.991174 -78.033989 0.255072 0.000880 -0.000106 -0.823109 -14.828612 -6.531170 -0.000000 0.228897 -0.028105 -0.138821 -0.001367 -1.130464 -0.159763 0.000000 -0.000000 -5.461034 6.140406 83.243252 -0.251549 0.000880 -0.000106 -0.988075 14.194993 8.441616 0.000000 0.000000 -0.000000 -0.000033 -0.000001 -4.173953 0.000000 0.000000 -0.000000 0.000000 -0.000000 -4.173953 0.095330 -0.006957 -0.000000 9.320077 -0.348855 -10.277750 0.017273 -0.329597 0.000000 -4.209806 -0.291188 1.910208 0.016863 -0.321756 0.000000 -7.696462 26.807251 14.057529 -0.095330 0.006957 -0.000000 -3.632686 0.263998 -2.310482 -0.017343 -0.330928 0.000000 13.106809 -0.775993 -0.747065 -0.016927 -0.322983 0.000000 -9.897559 -6.204887 -4.249043 
